HIERARCHY
ROOT Hips
{
    OFFSET 0.000000 0.000000 0.000000
    CHANNELS 6 Xposition Yposition Zposition Zrotation Xrotation Yrotation
        JOINT Chest
        {
            OFFSET -0.000000 29.765863 -0.000000
            CHANNELS 3 Zrotation Xrotation Yrotation
            JOINT Neck
            {
                OFFSET -0.000000 22.048780 0.000000
                CHANNELS 3 Zrotation Xrotation Yrotation
                JOINT Head
                {
                    OFFSET -0.000000 10.266670 0.000000
                    CHANNELS 3 Zrotation Xrotation Yrotation
                    End Site
                    {
                        OFFSET -0.000000 15.866677 0.000000
                    }
                }
            }
            JOINT LeftCollar
            {
                OFFSET -0.000000 22.048780 0.000000
                CHANNELS 3 Zrotation Xrotation Yrotation
                JOINT LeftShoulder
                {
                    OFFSET 18.666672 -0.000000 0.000000
                    CHANNELS 3 Zrotation Xrotation Yrotation
                    JOINT LeftElbow
                    {
                        OFFSET 23.656216 0.000000 0.000000
                        CHANNELS 3 Zrotation Xrotation Yrotation
                        JOINT LeftWrist
                        {
                            OFFSET 24.590921 0.000000 0.000000
                            CHANNELS 3 Zrotation Xrotation Yrotation
                            End Site
                            {
                                OFFSET 0.000000 -14.000008 0.000000
                            }
                        }
                    }
                }
            }
            JOINT RightCollar
            {
                OFFSET -0.000000 22.048780 0.000000
                CHANNELS 3 Zrotation Xrotation Yrotation
                JOINT RightShoulder
                {
                    OFFSET -18.666672 0.000000 0.000000
                    CHANNELS 3 Zrotation Xrotation Yrotation
                    JOINT RightElbow
                    {
                        OFFSET -23.656216 0.000000 0.000000
                        CHANNELS 3 Zrotation Xrotation Yrotation
                        JOINT RightWrist
                        {
                            OFFSET -24.590921 0.000000 0.000000
                            CHANNELS 3 Zrotation Xrotation Yrotation
                            End Site
                            {
                                OFFSET -0.000000 -14.000008 0.000000
                            }
                        }
                    }
                }
            }
        }
    JOINT LeftHip
    {
        OFFSET 11.200002 0.000000 0.000000
        CHANNELS 3 Zrotation Xrotation Yrotation
        JOINT LeftKnee
        {
            OFFSET -0.000000 -37.692356 0.000000
            CHANNELS 3 Zrotation Xrotation Yrotation
            JOINT LeftAnkle
            {
                OFFSET -0.000000 -39.524944 0.000000
                CHANNELS 3 Zrotation Xrotation Yrotation
                End Site
                {
                    OFFSET -0.000000 -4.666668 15.866677
                }
            }
        }
    }
    JOINT RightHip
    {
        OFFSET -11.200002 0.000000 0.000000
        CHANNELS 3 Zrotation Xrotation Yrotation
        JOINT RightKnee
        {
            OFFSET -0.000000 -37.692356 0.000000
            CHANNELS 3 Zrotation Xrotation Yrotation
            JOINT RightAnkle
            {
                OFFSET -0.000000 -39.524944 0.000000
                CHANNELS 3 Zrotation Xrotation Yrotation
                End Site
                {
                    OFFSET -0.000000 -4.666668 15.866677
                }
            }
        }
    }
}
MOTION
Frames:    14
Frame Time:    0.010000
88.310478    83.200348    -90.112602    1.173962    0.666909    -89.717606    -17.634007    18.909868    4.337854    4.861879    10.126288    21.496004    -6.807411    -37.023426    21.276756    -11.832928    0.808234    -7.458146    -49.717781    6.943789    -21.728817    21.986122    -2.833669    -14.653902    103.752907    -2.443009    130.296600    14.583462    -0.881880    -6.665993    15.266689    57.103813    54.873207    -1.232620    -0.558567    46.083858    -80.096687    -17.899559    -0.695898    9.550122    -28.859419    -1.692679    0.526926    23.794991    14.581489    11.058331    -15.956450    8.416007    12.336785    -7.884898    4.523360    -0.310639    12.657569    1.928195    -1.507017    -2.583865    -14.885031    
88.279663    83.207382    -90.058861    1.148386    0.655251    -89.895950    -16.927792    17.911997    3.929033    4.695227    13.306309    20.738085    -4.908839    -41.215717    19.344345    -13.289993    1.073882    -9.458996    -49.298046    6.984028    -19.619770    21.782415    -2.853426    -15.097154    103.527481    -1.038044    131.234940    15.002443    -0.978579    -7.518849    16.726028    57.820751    52.105888    -1.099362    -0.461112    45.789352    -80.452385    -17.645182    -0.535495    9.798760    -28.844191    -2.022509    -0.126110    23.979565    14.881702    10.549053    -15.998992    8.878359    12.335965    -8.247276    2.014026    -0.932240    13.535404    5.721717    -1.553329    -3.088803    -15.933881    
88.245461    83.215057    -90.003052    1.137787    0.660569    -90.069984    -16.915850    17.859764    3.804606    4.553339    13.065392    20.622330    -4.719687    -41.153557    19.354031    -13.320429    1.107288    -9.375998    -49.484856    6.896554    -19.548838    21.626928    -2.840914    -14.804882    104.061310    -1.679659    131.449020    15.022256    -0.952957    -7.398800    18.915638    57.385483    49.754620    -0.589541    -0.123349    45.462822    -80.791199    -17.911228    -0.183615    9.867062    -29.093363    0.007433    0.692433    24.528893    13.582980    10.229620    -16.362997    8.202421    12.296807    -7.830753    4.679364    -0.331939    12.749047    2.016425    -1.379997    -2.654653    -14.816392    
88.225319    83.224419    -89.932587    1.128417    0.620228    -90.243156    -16.954020    17.794088    3.674424    4.595482    13.088195    20.631485    -4.776925    -41.133434    19.367899    -13.284466    1.129684    -9.453110    -49.769600    6.700208    -19.352827    21.705467    -2.897373    -15.157705    103.024368    0.344737    131.718292    14.991505    -1.005289    -7.865237    17.874504    57.662067    50.615185    -0.710744    -0.309478    45.419559    -81.070694    -17.611307    -0.381011    9.839933    -29.097191    0.145194    0.713514    24.683836    13.631419    10.303058    -16.449602    8.202287    12.230597    -8.229450    2.119882    -0.924515    13.653475    5.949187    -1.509101    -3.127023    -15.955275    
88.178841    83.229759    -89.875832    1.071910    0.624996    -90.484756    -16.958086    17.735971    3.550028    4.552248    13.078630    20.634607    -4.632807    -41.041988    19.420898    -13.312284    1.094179    -9.314782    -49.910313    6.910119    -19.271738    21.481848    -2.877621    -15.278092    103.214417    0.532327    132.403549    14.880451    -1.038696    -8.049477    17.398884    58.174801    51.090931    -1.106440    -0.559231    44.953934    -80.872810    -17.454710    -0.798664    9.941829    -28.931303    0.005369    0.516501    24.663942    13.955560    10.492918    -16.371826    8.476120    12.217480    -8.157169    2.244426    -0.927219    13.716734    6.062926    -1.407793    -3.195693    -15.969970    
88.178841    83.229759    -89.875832    1.071844    0.624990    -90.484772    -16.964523    17.736984    3.550777    4.523188    13.027432    20.661928    -4.586238    -41.011341    19.464996    -13.308195    1.065164    -9.245796    -49.920467    6.924513    -19.285870    21.466717    -2.909012    -15.268651    103.215172    0.513407    132.361908    14.866465    -1.064977    -8.014866    17.391537    58.202564    51.103870    -1.117830    -0.496641    44.958878    -80.948601    -17.461973    -0.873938    9.941819    -28.931232    0.005358    0.516497    24.663925    13.955592    10.492949    -16.371788    8.476068    12.217453    -8.157110    2.244437    -0.927158    13.716799    6.063083    -1.407849    -3.195728    -15.970158    
88.149994    83.246284    -89.788055    1.073354    0.551110    -90.717735    -17.040607    17.651175    3.519560    4.699767    13.073642    20.615395    -4.783233    -40.970379    19.365526    -13.239672    1.088670    -9.345632    -50.301601    6.845248    -19.106739    21.389723    -2.859182    -15.064706    103.641808    0.278714    132.848801    14.739963    -1.007620    -7.667588    19.688066    58.286961    48.690254    -1.184292    -0.500206    44.489403    -81.664978    -17.680525    -0.785895    9.862812    -28.987215    0.743667    0.841826    24.941679    13.511484    10.848633    -16.494326    8.181321    12.087893    -8.191801    2.317277    -0.906468    13.839731    6.239992    -1.413406    -3.237946    -16.024977    
88.116371    83.240692    -89.756241    0.981994    0.628130    -90.865227    -16.916557    17.680079    3.365957    4.644430    13.159171    20.570166    -4.722464    -41.079834    19.328941    -13.326722    1.074653    -9.362687    -50.388931    6.991894    -19.007725    21.413761    -2.815426    -14.721559    104.196587    -0.912726    132.903610    14.680750    -0.965051    -7.713318    21.264732    58.074055    47.043587    -1.421101    -0.624536    44.206860    -80.284698    -17.429214    0.089921    10.005078    -28.789799    -0.064041    0.371895    24.855261    14.641970    11.111295    -16.334345    8.288251    12.154538    -7.798500    4.353835    -0.466152    13.267805    3.441290    -1.394049    -2.889115    -15.209999    
88.081802    83.253899    -89.685860    0.932998    0.577653    -91.047508    -16.909605    17.682865    3.239178    4.549682    13.080410    20.560234    -4.599640    -41.006886    19.357510    -13.268887    1.099845    -9.362439    -50.725182    7.069821    -18.882307    21.502090    -2.792748    -14.551275    104.345436    -1.058263    133.283325    14.730104    -1.011770    -7.940157    22.238665    57.684311    46.117184    -1.147281    -0.423060    43.439243    -81.135017    -18.117693    -0.010703    10.066401    -28.710306    -0.052046    0.154142    24.950905    14.624734    11.181599    -16.338520    8.539721    12.067945    -8.037054    2.568919    -0.881888    13.927057    6.266705    -1.410306    -3.262453    -16.048944    
88.068810    83.324409    -89.475594    1.214931    0.162047    -91.454384    -17.340448    17.287374    3.348895    4.194449    12.816409    20.451481    -3.865093    -40.393585    19.479519    -13.285875    1.074273    -9.190346    -50.846924    7.214607    -18.934298    21.377022    -2.740040    -14.422501    104.600266    -1.218657    133.627609    14.468688    -1.023704    -8.176775    19.627735    58.813614    48.778828    -1.790608    -0.835779    42.803207    -82.032585    -18.332088    -1.530355    9.702918    -28.718679    -0.728016    -0.357748    24.714191    15.647729    11.535965    -16.187920    8.808207    11.439471    -8.432157    2.687562    -0.699162    14.198094    6.727843    -1.289070    -3.402514    -16.161469    
88.011772    83.316971    -89.497391    1.106343    0.300227    -91.653610    -17.169329    17.202370    3.239818    4.247957    13.099620    20.398350    -4.058587    -40.543709    19.382032    -13.323855    1.100510    -9.337716    -51.094364    6.954043    -18.586634    21.006495    -2.698151    -14.647234    104.785194    -0.396029    133.874420    14.810486    -1.072950    -8.223169    22.915920    57.309715    45.200466    -0.511100    0.026780    42.297649    -81.893623    -18.351946    -0.418517    9.544072    -28.240692    -1.565560    0.097804    24.129328    17.171806    10.853399    -16.023109    7.872633    11.661252    -8.105039    3.994092    -0.523068    13.847281    5.064227    -1.239325    -3.220743    -15.680671    
87.970772    83.307053    -89.507233    1.028654    0.449024    -91.838654    -16.930943    17.148657    3.077880    4.155593    13.377160    20.588966    -4.170021    -40.533066    19.555838    -13.356465    1.085828    -9.354636    -51.357925    6.899078    -18.361027    21.212601    -2.780851    -14.635470    104.482063    -0.079295    134.409912    14.924820    -1.124819    -8.908755    22.261890    56.547024    45.302303    0.583470    0.567212    42.745895    -81.958931    -17.620167    -0.136204    9.846591    -28.071236    -1.892156    -0.337095    24.104242    17.337746    12.333759    -15.667397    8.502327    11.917052    -8.249232    2.569223    -1.046037    14.420399    7.366509    -1.274017    -3.556509    -16.324020    
87.931694    83.286957    -89.490738    0.892121    0.601681    -91.946732    -16.689100    17.138937    2.811032    4.123718    13.546776    20.603954    -4.189721    -40.530277    19.547037    -13.401324    1.121554    -9.319169    -51.536446    7.105098    -18.327295    21.223526    -2.729613    -14.307606    104.420715    -0.014471    134.794220    14.874533    -1.151757    -8.569266    26.362883    55.623055    40.685070    0.719203    0.456317    42.867233    -80.737946    -17.521206    1.776114    10.075677    -27.927137    -1.838623    -0.410609    24.198627    17.240246    11.572847    -15.777210    8.405731    12.084927    -8.089044    2.673089    -1.083785    14.448359    7.403339    -1.007049    -3.656080    -16.416067    
87.879433    83.305313    -89.409843    0.771599    0.510748    -92.100052    -16.734695    17.079117    2.629097    4.113261    13.734421    20.628128    -4.250612    -40.593941    19.553602    -13.452829    1.085175    -9.309576    -51.669014    7.162591    -18.122709    21.070538    -2.649788    -14.320376    104.992455    0.139196    135.022675    14.738179    -1.179420    -9.261706    22.956432    56.770287    44.072369    0.728903    0.357722    42.356979    -82.181084    -17.468203    -0.144688    9.938775    -27.771265    -1.551123    -0.219924    24.271557    17.289452    11.310693    -15.880160    8.111378    11.913334    -7.675261    4.628888    -0.580140    13.902661    4.664412    -1.214857    -3.297951    -15.554908    
